# xmcd
#
# Track frame offsets: 
#        150
#        16191
#        35226
#        57616
#        84701
#        105066
#        140328
#        167496
#        187630
#        211333
#        236311
#        256448
#
# Disc length: 3726 seconds
#
# Revision: 0
# Processed by: cddbd v1.4b42PL1 Copyright (c) Steve Scherf et al.
# Submitted via: ExactAudioCopy v0.90a11
#
DISCID=930e8c0c
DTITLE=John Martyn - Philentropy
DYEAR=1900
DGENRE=
TTITLE0=Make No Mistake
TTITLE1=Don't Want To Know
TTITLE2=Root Love
TTITLE3=Lookin' On
TTITLE4=Hung Up
TTITLE5=Johnnie Too Bad
TTITLE6=Sunday's Child
TTITLE7=Smiling Stranger
TTITLE8=She's A Lover
TTITLE9=All In Your Favour
TTITLE10=Step It Up
TTITLE11=A Little Strange
EXTD=
EXTT0=
EXTT1=
EXTT2=
EXTT3=
EXTT4=
EXTT5=
EXTT6=
EXTT7=
EXTT8=
EXTT9=
EXTT10=
EXTT11=
PLAYORDER=
